<svg width="503" height="125" viewBox="0 0 503 125" fill="none" xmlns="http://www.w3.org/2000/svg">
<mask id="path-1-inside-1_4:88" fill="white">
<path fill-rule="evenodd" clip-rule="evenodd" d="M503 0H479H12C5.37259 0 0 5.37258 0 12V113C0 119.627 5.37259 125 12 125H479C485.627 125 491 119.627 491 113V12L503 0Z"/>
</mask>
<path fill-rule="evenodd" clip-rule="evenodd" d="M503 0H479H12C5.37259 0 0 5.37258 0 12V113C0 119.627 5.37259 125 12 125H479C485.627 125 491 119.627 491 113V12L503 0Z" fill="#E9F2FF"/>
<path d="M503 0V-1H505.414L503.707 0.707107L503 0ZM491 12H490V11.5858L490.293 11.2929L491 12ZM479 -1H503V1H479V-1ZM479 1H12V-1H479V1ZM12 1C5.92487 1 1 5.92487 1 12H-1C-1 4.8203 4.82031 -1 12 -1V1ZM1 12V113H-1V12H1ZM1 113C1 119.075 5.92487 124 12 124V126C4.82031 126 -1 120.18 -1 113H1ZM12 124H479V126H12V124ZM479 124C485.075 124 490 119.075 490 113H492C492 120.18 486.18 126 479 126V124ZM490 113V12H492V113H490ZM503.707 0.707107L491.707 12.7071L490.293 11.2929L502.293 -0.707107L503.707 0.707107Z" fill="#C5DAFF" mask="url(#path-1-inside-1_4:88)"/>
</svg>
